<mxfile host="Electron" modified="2023-05-05T21:53:46.223Z" agent="Mozilla/5.0 (Windows NT 10.0; Win64; x64) AppleWebKit/537.36 (KHTML, like Gecko) draw.io/21.2.8 Chrome/112.0.5615.165 Electron/24.2.0 Safari/537.36" etag="VKlr5w0gK38rhmqioyyC" version="21.2.8" type="device">
  <diagram name="Page-1" id="1P0BDkxg8NpYrqQd53E_">
    <mxGraphModel dx="712" dy="828" grid="1" gridSize="10" guides="1" tooltips="1" connect="1" arrows="1" fold="1" page="1" pageScale="1" pageWidth="850" pageHeight="1100" math="0" shadow="0">
      <root>
        <mxCell id="0" />
        <mxCell id="1" parent="0" />
        <mxCell id="H-p9NEX7iDgcCFGtxz2--47" value="" style="edgeStyle=orthogonalEdgeStyle;rounded=0;orthogonalLoop=1;jettySize=auto;html=1;" parent="1" source="H-p9NEX7iDgcCFGtxz2--1" target="H-p9NEX7iDgcCFGtxz2--2" edge="1">
          <mxGeometry relative="1" as="geometry" />
        </mxCell>
        <mxCell id="H-p9NEX7iDgcCFGtxz2--1" value="inicio" style="ellipse;whiteSpace=wrap;html=1;" parent="1" vertex="1">
          <mxGeometry x="359" y="110" width="80" height="40" as="geometry" />
        </mxCell>
        <mxCell id="H-p9NEX7iDgcCFGtxz2--63" value="" style="edgeStyle=orthogonalEdgeStyle;rounded=0;orthogonalLoop=1;jettySize=auto;html=1;" parent="1" source="H-p9NEX7iDgcCFGtxz2--2" target="H-p9NEX7iDgcCFGtxz2--62" edge="1">
          <mxGeometry relative="1" as="geometry" />
        </mxCell>
        <mxCell id="H-p9NEX7iDgcCFGtxz2--2" value="int Sueldo=0, Suma=0, CantSuel=0, SueldoM=0&lt;br&gt;float Pro" style="shape=parallelogram;perimeter=parallelogramPerimeter;whiteSpace=wrap;html=1;fixedSize=1;" parent="1" vertex="1">
          <mxGeometry x="309" y="170" width="180" height="50" as="geometry" />
        </mxCell>
        <mxCell id="H-p9NEX7iDgcCFGtxz2--74" value="" style="edgeStyle=orthogonalEdgeStyle;rounded=0;orthogonalLoop=1;jettySize=auto;html=1;entryX=0;entryY=0.5;entryDx=0;entryDy=0;" parent="1" source="H-p9NEX7iDgcCFGtxz2--5" target="H-p9NEX7iDgcCFGtxz2--42" edge="1">
          <mxGeometry relative="1" as="geometry">
            <mxPoint x="499" y="460" as="targetPoint" />
          </mxGeometry>
        </mxCell>
        <mxCell id="H-p9NEX7iDgcCFGtxz2--83" value="" style="edgeStyle=orthogonalEdgeStyle;rounded=0;orthogonalLoop=1;jettySize=auto;html=1;" parent="1" source="H-p9NEX7iDgcCFGtxz2--5" target="H-p9NEX7iDgcCFGtxz2--68" edge="1">
          <mxGeometry relative="1" as="geometry" />
        </mxCell>
        <mxCell id="H-p9NEX7iDgcCFGtxz2--5" value="CantSuel&lt;br&gt;&amp;lt;&lt;br&gt;SueldoM" style="rhombus;whiteSpace=wrap;html=1;" parent="1" vertex="1">
          <mxGeometry x="354" y="415" width="90" height="90" as="geometry" />
        </mxCell>
        <mxCell id="H-p9NEX7iDgcCFGtxz2--81" value="" style="edgeStyle=orthogonalEdgeStyle;rounded=0;orthogonalLoop=1;jettySize=auto;html=1;" parent="1" source="H-p9NEX7iDgcCFGtxz2--8" target="H-p9NEX7iDgcCFGtxz2--80" edge="1">
          <mxGeometry relative="1" as="geometry" />
        </mxCell>
        <mxCell id="H-p9NEX7iDgcCFGtxz2--8" value="Suma += Sueldo" style="rounded=0;whiteSpace=wrap;html=1;" parent="1" vertex="1">
          <mxGeometry x="339" y="750" width="120" height="40" as="geometry" />
        </mxCell>
        <mxCell id="H-p9NEX7iDgcCFGtxz2--71" value="" style="edgeStyle=orthogonalEdgeStyle;rounded=0;orthogonalLoop=1;jettySize=auto;html=1;entryX=0.5;entryY=0;entryDx=0;entryDy=0;" parent="1" source="H-p9NEX7iDgcCFGtxz2--15" target="H-p9NEX7iDgcCFGtxz2--5" edge="1">
          <mxGeometry relative="1" as="geometry">
            <mxPoint x="400" y="410" as="targetPoint" />
          </mxGeometry>
        </mxCell>
        <mxCell id="H-p9NEX7iDgcCFGtxz2--15" value="1" style="ellipse;whiteSpace=wrap;html=1;aspect=fixed;" parent="1" vertex="1">
          <mxGeometry x="309" y="370" width="40" height="40" as="geometry" />
        </mxCell>
        <mxCell id="H-p9NEX7iDgcCFGtxz2--46" value="" style="edgeStyle=orthogonalEdgeStyle;rounded=0;orthogonalLoop=1;jettySize=auto;html=1;" parent="1" source="H-p9NEX7iDgcCFGtxz2--18" target="H-p9NEX7iDgcCFGtxz2--39" edge="1">
          <mxGeometry relative="1" as="geometry" />
        </mxCell>
        <mxCell id="H-p9NEX7iDgcCFGtxz2--18" value="&quot;La suma de los sueldos es&quot; Suma" style="shape=document;whiteSpace=wrap;html=1;boundedLbl=1;" parent="1" vertex="1">
          <mxGeometry x="560" y="500" width="120" height="50" as="geometry" />
        </mxCell>
        <mxCell id="H-p9NEX7iDgcCFGtxz2--20" value="Fin" style="ellipse;whiteSpace=wrap;html=1;" parent="1" vertex="1">
          <mxGeometry x="580" y="640" width="80" height="40" as="geometry" />
        </mxCell>
        <mxCell id="H-p9NEX7iDgcCFGtxz2--41" value="" style="edgeStyle=orthogonalEdgeStyle;rounded=0;orthogonalLoop=1;jettySize=auto;html=1;" parent="1" source="H-p9NEX7iDgcCFGtxz2--39" target="H-p9NEX7iDgcCFGtxz2--20" edge="1">
          <mxGeometry relative="1" as="geometry" />
        </mxCell>
        <mxCell id="H-p9NEX7iDgcCFGtxz2--39" value="&quot;Su promedio es&quot; Pro" style="shape=document;whiteSpace=wrap;html=1;boundedLbl=1;" parent="1" vertex="1">
          <mxGeometry x="560" y="570" width="120" height="50" as="geometry" />
        </mxCell>
        <mxCell id="H-p9NEX7iDgcCFGtxz2--45" value="" style="edgeStyle=orthogonalEdgeStyle;rounded=0;orthogonalLoop=1;jettySize=auto;html=1;" parent="1" source="H-p9NEX7iDgcCFGtxz2--42" target="H-p9NEX7iDgcCFGtxz2--18" edge="1">
          <mxGeometry relative="1" as="geometry" />
        </mxCell>
        <mxCell id="H-p9NEX7iDgcCFGtxz2--42" value="Pro = (Float) Suma/ CantSuel" style="rounded=0;whiteSpace=wrap;html=1;" parent="1" vertex="1">
          <mxGeometry x="560" y="440" width="120" height="40" as="geometry" />
        </mxCell>
        <mxCell id="H-p9NEX7iDgcCFGtxz2--60" value="" style="edgeStyle=orthogonalEdgeStyle;rounded=0;orthogonalLoop=1;jettySize=auto;html=1;" parent="1" source="H-p9NEX7iDgcCFGtxz2--61" target="H-p9NEX7iDgcCFGtxz2--62" edge="1">
          <mxGeometry relative="1" as="geometry" />
        </mxCell>
        <mxCell id="H-p9NEX7iDgcCFGtxz2--61" value="&quot;Ingresa la cantidad de sueldos que se necesitan en el programa&quot;" style="shape=document;whiteSpace=wrap;html=1;boundedLbl=1;" parent="1" vertex="1">
          <mxGeometry x="289" y="240" width="220" height="60" as="geometry" />
        </mxCell>
        <mxCell id="H-p9NEX7iDgcCFGtxz2--70" value="" style="edgeStyle=orthogonalEdgeStyle;rounded=0;orthogonalLoop=1;jettySize=auto;html=1;entryX=0.5;entryY=0;entryDx=0;entryDy=0;" parent="1" source="H-p9NEX7iDgcCFGtxz2--62" target="H-p9NEX7iDgcCFGtxz2--5" edge="1">
          <mxGeometry relative="1" as="geometry">
            <mxPoint x="400" y="410" as="targetPoint" />
          </mxGeometry>
        </mxCell>
        <mxCell id="H-p9NEX7iDgcCFGtxz2--62" value="SueldoM" style="shape=parallelogram;perimeter=parallelogramPerimeter;whiteSpace=wrap;html=1;fixedSize=1;" parent="1" vertex="1">
          <mxGeometry x="339" y="320" width="120" height="40" as="geometry" />
        </mxCell>
        <mxCell id="H-p9NEX7iDgcCFGtxz2--85" value="" style="edgeStyle=orthogonalEdgeStyle;rounded=0;orthogonalLoop=1;jettySize=auto;html=1;" parent="1" source="H-p9NEX7iDgcCFGtxz2--68" target="H-p9NEX7iDgcCFGtxz2--69" edge="1">
          <mxGeometry relative="1" as="geometry" />
        </mxCell>
        <mxCell id="H-p9NEX7iDgcCFGtxz2--68" value="&quot;Ingresa el sueldo numero &quot; CantSuel+1" style="shape=document;whiteSpace=wrap;html=1;boundedLbl=1;" parent="1" vertex="1">
          <mxGeometry x="339" y="530" width="120" height="60" as="geometry" />
        </mxCell>
        <mxCell id="H-p9NEX7iDgcCFGtxz2--86" value="" style="edgeStyle=orthogonalEdgeStyle;rounded=0;orthogonalLoop=1;jettySize=auto;html=1;" parent="1" source="H-p9NEX7iDgcCFGtxz2--69" target="H-p9NEX7iDgcCFGtxz2--76" edge="1">
          <mxGeometry relative="1" as="geometry" />
        </mxCell>
        <mxCell id="H-p9NEX7iDgcCFGtxz2--69" value="Sueldo" style="shape=parallelogram;perimeter=parallelogramPerimeter;whiteSpace=wrap;html=1;fixedSize=1;" parent="1" vertex="1">
          <mxGeometry x="339" y="610" width="120" height="40" as="geometry" />
        </mxCell>
        <mxCell id="H-p9NEX7iDgcCFGtxz2--88" value="" style="edgeStyle=orthogonalEdgeStyle;rounded=0;orthogonalLoop=1;jettySize=auto;html=1;" parent="1" source="H-p9NEX7iDgcCFGtxz2--76" target="H-p9NEX7iDgcCFGtxz2--8" edge="1">
          <mxGeometry relative="1" as="geometry" />
        </mxCell>
        <mxCell id="H-p9NEX7iDgcCFGtxz2--76" value="CantSuel ++" style="rounded=0;whiteSpace=wrap;html=1;" parent="1" vertex="1">
          <mxGeometry x="339" y="680" width="120" height="40" as="geometry" />
        </mxCell>
        <mxCell id="H-p9NEX7iDgcCFGtxz2--80" value="1" style="ellipse;whiteSpace=wrap;html=1;aspect=fixed;" parent="1" vertex="1">
          <mxGeometry x="379" y="820" width="40" height="40" as="geometry" />
        </mxCell>
      </root>
    </mxGraphModel>
  </diagram>
</mxfile>
